<mxfile host="app.diagrams.net" agent="Mozilla/5.0 (Windows NT 10.0; Win64; x64) AppleWebKit/537.36 (KHTML, like Gecko) Chrome/131.0.0.0 Safari/537.36 Edg/131.0.0.0" version="24.9.2">
  <diagram name="Страница — 1" id="CezWRY65C4xwUIykzSp0">
    <mxGraphModel dx="962" dy="524" grid="1" gridSize="10" guides="1" tooltips="1" connect="1" arrows="1" fold="1" page="1" pageScale="1" pageWidth="827" pageHeight="1169" math="0" shadow="0">
      <root>
        <mxCell id="0" />
        <mxCell id="1" parent="0" />
        <mxCell id="0ttastZQPi4BhX-E5Xyq-6" value="&lt;font&gt;d&lt;/font&gt;" style="edgeStyle=orthogonalEdgeStyle;rounded=0;orthogonalLoop=1;jettySize=auto;html=1;exitX=1;exitY=0;exitDx=0;exitDy=0;entryX=0;entryY=0;entryDx=0;entryDy=0;fontSize=24;fontFamily=Times New Roman;align=center;" edge="1" parent="1" source="0ttastZQPi4BhX-E5Xyq-1" target="0ttastZQPi4BhX-E5Xyq-2">
          <mxGeometry relative="1" as="geometry" />
        </mxCell>
        <mxCell id="0ttastZQPi4BhX-E5Xyq-12" value="a" style="edgeStyle=orthogonalEdgeStyle;rounded=0;orthogonalLoop=1;jettySize=auto;html=1;exitX=1;exitY=1;exitDx=0;exitDy=0;entryX=0;entryY=1;entryDx=0;entryDy=0;fontSize=24;fontFamily=Times New Roman;align=center;" edge="1" parent="1" source="0ttastZQPi4BhX-E5Xyq-1" target="0ttastZQPi4BhX-E5Xyq-2">
          <mxGeometry relative="1" as="geometry" />
        </mxCell>
        <mxCell id="0ttastZQPi4BhX-E5Xyq-1" value="S0" style="ellipse;whiteSpace=wrap;html=1;aspect=fixed;fontSize=24;fontFamily=Times New Roman;fontStyle=1;align=center;" vertex="1" parent="1">
          <mxGeometry x="134" y="229.95" width="80" height="80" as="geometry" />
        </mxCell>
        <mxCell id="0ttastZQPi4BhX-E5Xyq-8" value="Л" style="edgeStyle=orthogonalEdgeStyle;rounded=0;orthogonalLoop=1;jettySize=auto;html=1;exitX=0;exitY=0.5;exitDx=0;exitDy=0;entryX=1;entryY=0.5;entryDx=0;entryDy=0;fontSize=24;fontFamily=Times New Roman;align=center;" edge="1" parent="1" source="0ttastZQPi4BhX-E5Xyq-2" target="0ttastZQPi4BhX-E5Xyq-1">
          <mxGeometry relative="1" as="geometry" />
        </mxCell>
        <mxCell id="0ttastZQPi4BhX-E5Xyq-13" value="Л" style="edgeStyle=orthogonalEdgeStyle;rounded=0;orthogonalLoop=1;jettySize=auto;html=1;exitX=1;exitY=0.5;exitDx=0;exitDy=0;entryX=0;entryY=0.5;entryDx=0;entryDy=0;fontSize=24;fontFamily=Times New Roman;align=center;" edge="1" parent="1" source="0ttastZQPi4BhX-E5Xyq-2" target="0ttastZQPi4BhX-E5Xyq-3">
          <mxGeometry relative="1" as="geometry" />
        </mxCell>
        <mxCell id="0ttastZQPi4BhX-E5Xyq-2" value="S1" style="ellipse;whiteSpace=wrap;html=1;aspect=fixed;fontSize=24;fontFamily=Times New Roman;fontStyle=1;align=center;" vertex="1" parent="1">
          <mxGeometry x="294" y="229.95" width="80" height="80" as="geometry" />
        </mxCell>
        <mxCell id="0ttastZQPi4BhX-E5Xyq-14" value="c" style="edgeStyle=orthogonalEdgeStyle;rounded=0;orthogonalLoop=1;jettySize=auto;html=1;exitX=1;exitY=0.5;exitDx=0;exitDy=0;entryX=0;entryY=0.5;entryDx=0;entryDy=0;fontSize=24;fontFamily=Times New Roman;align=center;" edge="1" parent="1" source="0ttastZQPi4BhX-E5Xyq-3" target="0ttastZQPi4BhX-E5Xyq-5">
          <mxGeometry relative="1" as="geometry" />
        </mxCell>
        <mxCell id="0ttastZQPi4BhX-E5Xyq-16" value="ab" style="edgeStyle=orthogonalEdgeStyle;rounded=0;orthogonalLoop=1;jettySize=auto;html=1;exitX=0;exitY=0;exitDx=0;exitDy=0;entryX=1;entryY=0;entryDx=0;entryDy=0;fontSize=24;fontFamily=Times New Roman;align=center;" edge="1" parent="1" source="0ttastZQPi4BhX-E5Xyq-3" target="0ttastZQPi4BhX-E5Xyq-3">
          <mxGeometry relative="1" as="geometry">
            <mxPoint x="524" y="149.95" as="targetPoint" />
            <Array as="points">
              <mxPoint x="466" y="109.95" />
              <mxPoint x="522" y="109.95" />
            </Array>
          </mxGeometry>
        </mxCell>
        <mxCell id="0ttastZQPi4BhX-E5Xyq-3" value="S2" style="ellipse;whiteSpace=wrap;html=1;aspect=fixed;fontSize=24;fontFamily=Times New Roman;fontStyle=1;align=center;" vertex="1" parent="1">
          <mxGeometry x="454" y="229.95" width="80" height="80" as="geometry" />
        </mxCell>
        <mxCell id="0ttastZQPi4BhX-E5Xyq-5" value="Sf" style="ellipse;whiteSpace=wrap;html=1;aspect=fixed;fontSize=24;fontFamily=Times New Roman;fontStyle=1;align=center;" vertex="1" parent="1">
          <mxGeometry x="614" y="229.95" width="80" height="80" as="geometry" />
        </mxCell>
      </root>
    </mxGraphModel>
  </diagram>
</mxfile>
